<mxGraphModel dx="0" dy="0" grid="1" gridSize="10" guides="1" tooltips="1" connect="1" arrows="1" fold="1" page="0" pageScale="1" background="none" math="0" shadow="0">
  <root>
    <mxCell id="0" />
    <mxCell id="1" parent="0" />
    <mxCell id="node18" parent="1" vertex="1" value="&lt;p style=&quot;margin:0px;margin-top:4px;text-align:center;&quot;&gt;&lt;b&gt;AddConduitsTransaction&lt;/b&gt;&lt;/p&gt;&lt;hr size=&quot;1&quot;/&gt;&lt;p style=&quot;margin:0 0 0 4px;line-height:1.6;&quot;&gt;# AddConduitsTransaction(AddConduitsTransactionBuilder&amp;lt;?, ?&amp;gt;): &lt;br/&gt;+ AddConduitsTransaction(JSONObject, long, long, int): &lt;/p&gt;&lt;hr size=&quot;1&quot;/&gt;&lt;p style=&quot;margin:0 0 0 4px;line-height:1.6;&quot;&gt;- vmId: long&lt;br/&gt;- conduits: String[]&lt;/p&gt;&lt;hr size=&quot;1&quot;/&gt;&lt;p style=&quot;margin:0 0 0 4px;line-height:1.6;&quot;&gt;+ builder(): AddConduitsTransactionBuilder&amp;lt;?, ?&amp;gt;&lt;br/&gt;+ toJSON(): JSONObject&lt;/p&gt;&lt;hr size=&quot;1&quot;/&gt;&lt;p style=&quot;margin:0 0 0 4px;line-height:1.6;&quot;&gt; conduits: String[]&lt;br/&gt; vmId: long&lt;/p&gt;" style="verticalAlign=top;align=left;overflow=fill;fontSize=14;fontFamily=Helvetica;html=1;rounded=0;shadow=0;comic=0;labelBackgroundColor=none;strokeWidth=1;">
      <mxGeometry x="5377" y="232" width="394" height="223" as="geometry" />
    </mxCell>
    <mxCell id="node16" parent="1" vertex="1" value="&lt;p style=&quot;margin:0px;margin-top:4px;text-align:center;&quot;&gt;&lt;b&gt;Block&lt;/b&gt;&lt;/p&gt;&lt;hr size=&quot;1&quot;/&gt;&lt;p style=&quot;margin:0 0 0 4px;line-height:1.6;&quot;&gt;+ Block(JSONObject): &lt;/p&gt;&lt;hr size=&quot;1&quot;/&gt;&lt;p style=&quot;margin:0 0 0 4px;line-height:1.6;&quot;&gt;- transactionCount: int&lt;br/&gt;- size: int&lt;br/&gt;- reward: long&lt;br/&gt;- number: long&lt;br/&gt;- hash: String&lt;br/&gt;- submitter: String&lt;br/&gt;- transactions: Transaction[]&lt;br/&gt;- timestamp: long&lt;br/&gt;- success: boolean&lt;/p&gt;&lt;hr size=&quot;1&quot;/&gt;&lt;p style=&quot;margin:0 0 0 4px;line-height:1.6;&quot;&gt; success: boolean&lt;br/&gt; transactions: Transaction[]&lt;br/&gt; hash: String&lt;br/&gt; submitter: String&lt;br/&gt; transactionCount: int&lt;br/&gt; size: int&lt;br/&gt; reward: long&lt;br/&gt; number: long&lt;br/&gt; timestamp: long&lt;/p&gt;" style="verticalAlign=top;align=left;overflow=fill;fontSize=14;fontFamily=Helvetica;html=1;rounded=0;shadow=0;comic=0;labelBackgroundColor=none;strokeWidth=1;">
      <mxGeometry x="4451" y="547" width="186" height="460" as="geometry" />
    </mxCell>
    <mxCell id="node17" parent="1" vertex="1" value="&lt;p style=&quot;margin:0px;margin-top:4px;text-align:center;&quot;&gt;&lt;b&gt;ClaimSpotTransaction&lt;/b&gt;&lt;/p&gt;&lt;hr size=&quot;1&quot;/&gt;&lt;p style=&quot;margin:0 0 0 4px;line-height:1.6;&quot;&gt;# ClaimSpotTransaction(ClaimSpotTransactionBuilder&amp;lt;?, ?&amp;gt;): &lt;br/&gt;+ ClaimSpotTransaction(JSONObject, long, long, int): &lt;/p&gt;&lt;hr size=&quot;1&quot;/&gt;&lt;p style=&quot;margin:0 0 0 4px;line-height:1.6;&quot;&gt;- validator: String&lt;/p&gt;&lt;hr size=&quot;1&quot;/&gt;&lt;p style=&quot;margin:0 0 0 4px;line-height:1.6;&quot;&gt;+ builder(): ClaimSpotTransactionBuilder&amp;lt;?, ?&amp;gt;&lt;br/&gt;+ toJSON(): JSONObject&lt;/p&gt;&lt;hr size=&quot;1&quot;/&gt;&lt;p style=&quot;margin:0 0 0 4px;line-height:1.6;&quot;&gt; validator: String&lt;/p&gt;" style="verticalAlign=top;align=left;overflow=fill;fontSize=14;fontFamily=Helvetica;html=1;rounded=0;shadow=0;comic=0;labelBackgroundColor=none;strokeWidth=1;">
      <mxGeometry x="6152" y="332" width="365" height="179" as="geometry" />
    </mxCell>
    <mxCell id="node21" parent="1" vertex="1" value="&lt;p style=&quot;margin:0px;margin-top:4px;text-align:center;&quot;&gt;&lt;b&gt;ClaimVmIdTransaction&lt;/b&gt;&lt;/p&gt;&lt;hr size=&quot;1&quot;/&gt;&lt;p style=&quot;margin:0 0 0 4px;line-height:1.6;&quot;&gt;+ ClaimVmIdTransaction(JSONObject, long, long, int): &lt;br/&gt;# ClaimVmIdTransaction(ClaimVmIdTransactionBuilder&amp;lt;?, ?&amp;gt;): &lt;/p&gt;&lt;hr size=&quot;1&quot;/&gt;&lt;p style=&quot;margin:0 0 0 4px;line-height:1.6;&quot;&gt;- vmId: long&lt;/p&gt;&lt;hr size=&quot;1&quot;/&gt;&lt;p style=&quot;margin:0 0 0 4px;line-height:1.6;&quot;&gt;+ toJSON(): JSONObject&lt;br/&gt;+ builder(): ClaimVmIdTransactionBuilder&amp;lt;?, ?&amp;gt;&lt;/p&gt;&lt;hr size=&quot;1&quot;/&gt;&lt;p style=&quot;margin:0 0 0 4px;line-height:1.6;&quot;&gt; vmId: long&lt;/p&gt;" style="verticalAlign=top;align=left;overflow=fill;fontSize=14;fontFamily=Helvetica;html=1;rounded=0;shadow=0;comic=0;labelBackgroundColor=none;strokeWidth=1;">
      <mxGeometry x="4994" y="568" width="372" height="179" as="geometry" />
    </mxCell>
    <mxCell id="node24" parent="1" vertex="1" value="&lt;p style=&quot;margin:0px;margin-top:4px;text-align:center;&quot;&gt;&lt;b&gt;ConduitApprovalTransaction&lt;/b&gt;&lt;/p&gt;&lt;hr size=&quot;1&quot;/&gt;&lt;p style=&quot;margin:0 0 0 4px;line-height:1.6;&quot;&gt;+ ConduitApprovalTransaction(JSONObject, long, long, int): &lt;br/&gt;# ConduitApprovalTransaction(ConduitApprovalTransactionBuilder&amp;lt;?, ?&amp;gt;): &lt;/p&gt;&lt;hr size=&quot;1&quot;/&gt;&lt;p style=&quot;margin:0 0 0 4px;line-height:1.6;&quot;&gt;- vmId: long&lt;br/&gt;- transactions: List&amp;lt;Transaction&amp;gt;&lt;/p&gt;&lt;hr size=&quot;1&quot;/&gt;&lt;p style=&quot;margin:0 0 0 4px;line-height:1.6;&quot;&gt;+ builder(): ConduitApprovalTransactionBuilder&amp;lt;?, ?&amp;gt;&lt;/p&gt;&lt;hr size=&quot;1&quot;/&gt;&lt;p style=&quot;margin:0 0 0 4px;line-height:1.6;&quot;&gt; transactions: List&amp;lt;Transaction&amp;gt;&lt;br/&gt; vmId: long&lt;/p&gt;" style="verticalAlign=top;align=left;overflow=fill;fontSize=14;fontFamily=Helvetica;html=1;rounded=0;shadow=0;comic=0;labelBackgroundColor=none;strokeWidth=1;">
      <mxGeometry x="1832" y="538" width="391" height="201" as="geometry" />
    </mxCell>
    <mxCell id="node6" parent="1" vertex="1" value="&lt;p style=&quot;margin:0px;margin-top:4px;text-align:center;&quot;&gt;&lt;b&gt;DelegateTransaction&lt;/b&gt;&lt;/p&gt;&lt;hr size=&quot;1&quot;/&gt;&lt;p style=&quot;margin:0 0 0 4px;line-height:1.6;&quot;&gt;+ DelegateTransaction(JSONObject, long, long, int): &lt;br/&gt;# DelegateTransaction(DelegateTransactionBuilder&amp;lt;?, ?&amp;gt;): &lt;/p&gt;&lt;hr size=&quot;1&quot;/&gt;&lt;p style=&quot;margin:0 0 0 4px;line-height:1.6;&quot;&gt;- validator: String&lt;/p&gt;&lt;hr size=&quot;1&quot;/&gt;&lt;p style=&quot;margin:0 0 0 4px;line-height:1.6;&quot;&gt;+ toJSON(): JSONObject&lt;br/&gt;+ builder(): DelegateTransactionBuilder&amp;lt;?, ?&amp;gt;&lt;/p&gt;&lt;hr size=&quot;1&quot;/&gt;&lt;p style=&quot;margin:0 0 0 4px;line-height:1.6;&quot;&gt; validator: String&lt;/p&gt;" style="verticalAlign=top;align=left;overflow=fill;fontSize=14;fontFamily=Helvetica;html=1;rounded=0;shadow=0;comic=0;labelBackgroundColor=none;strokeWidth=1;">
      <mxGeometry x="10547" y="500" width="352" height="179" as="geometry" />
    </mxCell>
    <mxCell id="node0" parent="1" vertex="1" value="&lt;p style=&quot;margin:0px;margin-top:4px;text-align:center;&quot;&gt;&lt;b&gt;Delegator&lt;/b&gt;&lt;/p&gt;&lt;hr size=&quot;1&quot;/&gt;&lt;p style=&quot;margin:0 0 0 4px;line-height:1.6;&quot;&gt;# Delegator(DelegatorBuilder&amp;lt;?, ?&amp;gt;): &lt;/p&gt;&lt;hr size=&quot;1&quot;/&gt;&lt;p style=&quot;margin:0 0 0 4px;line-height:1.6;&quot;&gt;- shares: long&lt;br/&gt;- address: String&lt;br/&gt;- validatorAddress: String&lt;br/&gt;- delegatedPWR: long&lt;/p&gt;&lt;hr size=&quot;1&quot;/&gt;&lt;p style=&quot;margin:0 0 0 4px;line-height:1.6;&quot;&gt;+ builder(): DelegatorBuilder&amp;lt;?, ?&amp;gt;&lt;/p&gt;&lt;hr size=&quot;1&quot;/&gt;&lt;p style=&quot;margin:0 0 0 4px;line-height:1.6;&quot;&gt; shares: long&lt;br/&gt; address: String&lt;br/&gt; delegatedPWR: long&lt;br/&gt; validatorAddress: String&lt;/p&gt;" style="verticalAlign=top;align=left;overflow=fill;fontSize=14;fontFamily=Helvetica;html=1;rounded=0;shadow=0;comic=0;labelBackgroundColor=none;strokeWidth=1;">
      <mxGeometry x="9313" y="454" width="239" height="267" as="geometry" />
    </mxCell>
    <mxCell id="node15" parent="1" vertex="1" value="&lt;p style=&quot;margin:0px;margin-top:4px;text-align:center;&quot;&gt;&lt;b&gt;ECDSASignature&lt;/b&gt;&lt;/p&gt;&lt;hr size=&quot;1&quot;/&gt;&lt;p style=&quot;margin:0 0 0 4px;line-height:1.6;&quot;&gt;+ ECDSASignature(BigInteger, BigInteger): &lt;/p&gt;&lt;hr size=&quot;1&quot;/&gt;&lt;p style=&quot;margin:0 0 0 4px;line-height:1.6;&quot;&gt;+ toCanonicalised(): ECDSASignature&lt;/p&gt;&lt;hr size=&quot;1&quot;/&gt;&lt;p style=&quot;margin:0 0 0 4px;line-height:1.6;&quot;&gt; canonical: boolean&lt;/p&gt;" style="verticalAlign=top;align=left;overflow=fill;fontSize=14;fontFamily=Helvetica;html=1;rounded=0;shadow=0;comic=0;labelBackgroundColor=none;strokeWidth=1;">
      <mxGeometry x="4690" y="374" width="265" height="117" as="geometry" />
    </mxCell>
    <mxCell id="node28" parent="1" vertex="1" value="&lt;p style=&quot;margin:0px;margin-top:4px;text-align:center;&quot;&gt;&lt;b&gt;GuardianApprovalTransaction&lt;/b&gt;&lt;/p&gt;&lt;hr size=&quot;1&quot;/&gt;&lt;p style=&quot;margin:0 0 0 4px;line-height:1.6;&quot;&gt;+ GuardianApprovalTransaction(JSONObject, long, long, int): &lt;br/&gt;# GuardianApprovalTransaction(GuardianApprovalTransactionBuilder&amp;lt;?, ?&amp;gt;): &lt;/p&gt;&lt;hr size=&quot;1&quot;/&gt;&lt;p style=&quot;margin:0 0 0 4px;line-height:1.6;&quot;&gt;- transactions: List&amp;lt;Transaction&amp;gt;&lt;/p&gt;&lt;hr size=&quot;1&quot;/&gt;&lt;p style=&quot;margin:0 0 0 4px;line-height:1.6;&quot;&gt;+ builder(): GuardianApprovalTransactionBuilder&amp;lt;?, ?&amp;gt;&lt;br/&gt;+ toJSON(): JSONObject&lt;/p&gt;&lt;hr size=&quot;1&quot;/&gt;&lt;p style=&quot;margin:0 0 0 4px;line-height:1.6;&quot;&gt; transactions: List&amp;lt;Transaction&amp;gt;&lt;/p&gt;" style="verticalAlign=top;align=left;overflow=fill;fontSize=14;fontFamily=Helvetica;html=1;rounded=0;shadow=0;comic=0;labelBackgroundColor=none;strokeWidth=1;">
      <mxGeometry x="-134" y="500" width="389" height="179" as="geometry" />
    </mxCell>
    <mxCell id="node13" parent="1" vertex="1" value="&lt;p style=&quot;margin:0px;margin-top:4px;text-align:center;&quot;&gt;&lt;b&gt;Hash&lt;/b&gt;&lt;/p&gt;&lt;hr size=&quot;1&quot;/&gt;&lt;p style=&quot;margin:0 0 0 4px;line-height:1.6;&quot;&gt;- Hash(): &lt;/p&gt;&lt;hr size=&quot;1&quot;/&gt;&lt;p style=&quot;margin:0 0 0 4px;line-height:1.6;&quot;&gt;+ sha256(byte[]): byte[]&lt;br/&gt;+ sha256hash160(byte[]): byte[]&lt;br/&gt;+ sha3(byte[], int, int): byte[]&lt;br/&gt;+ hash(byte[], String): byte[]&lt;br/&gt;+ sha3(byte[]): byte[]&lt;br/&gt;+ hmacSha512(byte[], byte[]): byte[]&lt;br/&gt;+ blake2b256(byte[]): byte[]&lt;/p&gt;" style="verticalAlign=top;align=left;overflow=fill;fontSize=14;fontFamily=Helvetica;html=1;rounded=0;shadow=0;comic=0;labelBackgroundColor=none;strokeWidth=1;">
      <mxGeometry x="6559" y="583" width="234" height="213" as="geometry" />
    </mxCell>
    <mxCell id="node30" parent="1" vertex="1" value="&lt;p style=&quot;margin:0px;margin-top:4px;text-align:center;&quot;&gt;&lt;b&gt;Hex&lt;/b&gt;&lt;/p&gt;&lt;hr size=&quot;1&quot;/&gt;&lt;p style=&quot;margin:0 0 0 4px;line-height:1.6;&quot;&gt;+ Hex(): &lt;/p&gt;&lt;hr size=&quot;1&quot;/&gt;&lt;p style=&quot;margin:0 0 0 4px;line-height:1.6;&quot;&gt;+ decode(String): byte[]&lt;br/&gt;+ toHexString(byte[]): String&lt;/p&gt;" style="verticalAlign=top;align=left;overflow=fill;fontSize=14;fontFamily=Helvetica;html=1;rounded=0;shadow=0;comic=0;labelBackgroundColor=none;strokeWidth=1;">
      <mxGeometry x="701" y="538" width="189" height="111" as="geometry" />
    </mxCell>
    <mxCell id="node5" parent="1" vertex="1" value="&lt;p style=&quot;margin:0px;margin-top:4px;text-align:center;&quot;&gt;&lt;b&gt;JoinTransaction&lt;/b&gt;&lt;/p&gt;&lt;hr size=&quot;1&quot;/&gt;&lt;p style=&quot;margin:0 0 0 4px;line-height:1.6;&quot;&gt;+ JoinTransaction(JSONObject, long, long, int): &lt;br/&gt;# JoinTransaction(JoinTransactionBuilder&amp;lt;?, ?&amp;gt;): &lt;/p&gt;&lt;hr size=&quot;1&quot;/&gt;&lt;p style=&quot;margin:0 0 0 4px;line-height:1.6;&quot;&gt;- ip: String&lt;br/&gt;- validator: String&lt;/p&gt;&lt;hr size=&quot;1&quot;/&gt;&lt;p style=&quot;margin:0 0 0 4px;line-height:1.6;&quot;&gt;+ toJSON(): JSONObject&lt;br/&gt;+ builder(): JoinTransactionBuilder&amp;lt;?, ?&amp;gt;&lt;/p&gt;&lt;hr size=&quot;1&quot;/&gt;&lt;p style=&quot;margin:0 0 0 4px;line-height:1.6;&quot;&gt; ip: String&lt;br/&gt; validator: String&lt;/p&gt;" style="verticalAlign=top;align=left;overflow=fill;fontSize=14;fontFamily=Helvetica;html=1;rounded=0;shadow=0;comic=0;labelBackgroundColor=none;strokeWidth=1;">
      <mxGeometry x="10960" y="477" width="299" height="223" as="geometry" />
    </mxCell>
    <mxCell id="node2" parent="1" vertex="1" value="&lt;p style=&quot;margin:0px;margin-top:4px;text-align:center;&quot;&gt;&lt;b&gt;Main&lt;/b&gt;&lt;/p&gt;&lt;hr size=&quot;1&quot;/&gt;&lt;p style=&quot;margin:0 0 0 4px;line-height:1.6;&quot;&gt;+ Main(): &lt;/p&gt;&lt;hr size=&quot;1&quot;/&gt;&lt;p style=&quot;margin:0 0 0 4px;line-height:1.6;&quot;&gt;- testGuardianTransactions(PWRWallet, PWRWallet, PWRJ): void&lt;br/&gt;- testMoveStake(PWRWallet, PWRJ): void&lt;br/&gt;+ main(String[]): void&lt;br/&gt;- testValidatorTransactions(PWRWallet, PWRWallet, PWRJ): void&lt;br/&gt;- testTransferPWR(PWRWallet, PWRWallet, PWRJ): void&lt;br/&gt;- isValidator(String, PWRJ): boolean&lt;br/&gt;+ ecdsaPrivateKeyToRsaPrivateKey(byte[]): byte[]&lt;br/&gt;- testClaimAndSendVmData(PWRWallet, PWRJ): void&lt;br/&gt;- testTransferPWRFromVM(PWRWallet, PWRWallet, PWRJ): void&lt;br/&gt;- testPayableVmDataTransaction(PWRWallet, PWRWallet, PWRJ): void&lt;br/&gt;- testDelegateAndWithdraw(PWRWallet, PWRJ): void&lt;br/&gt;+ removeValidator(String): void&lt;br/&gt;- testConduitTransactions(PWRWallet, PWRWallet, PWRJ): void&lt;/p&gt;" style="verticalAlign=top;align=left;overflow=fill;fontSize=14;fontFamily=Helvetica;html=1;rounded=0;shadow=0;comic=0;labelBackgroundColor=none;strokeWidth=1;">
      <mxGeometry x="9613" y="425" width="407" height="345" as="geometry" />
    </mxCell>
    <mxCell id="node3" parent="1" vertex="1" value="&lt;p style=&quot;margin:0px;margin-top:4px;text-align:center;&quot;&gt;&lt;b&gt;MoveStakeTransaction&lt;/b&gt;&lt;/p&gt;&lt;hr size=&quot;1&quot;/&gt;&lt;p style=&quot;margin:0 0 0 4px;line-height:1.6;&quot;&gt;+ MoveStakeTransaction(JSONObject, long, long, int): &lt;br/&gt;# MoveStakeTransaction(MoveStakeTransactionBuilder&amp;lt;?, ?&amp;gt;): &lt;/p&gt;&lt;hr size=&quot;1&quot;/&gt;&lt;p style=&quot;margin:0 0 0 4px;line-height:1.6;&quot;&gt;- fromValidator: String&lt;br/&gt;- sharesAmount: long&lt;br/&gt;- toValidator: String&lt;/p&gt;&lt;hr size=&quot;1&quot;/&gt;&lt;p style=&quot;margin:0 0 0 4px;line-height:1.6;&quot;&gt;+ builder(): MoveStakeTransactionBuilder&amp;lt;?, ?&amp;gt;&lt;br/&gt;+ toJSON(): JSONObject&lt;/p&gt;&lt;hr size=&quot;1&quot;/&gt;&lt;p style=&quot;margin:0 0 0 4px;line-height:1.6;&quot;&gt; fromValidator: String&lt;br/&gt; sharesAmount: long&lt;br/&gt; toValidator: String&lt;/p&gt;" style="verticalAlign=top;align=left;overflow=fill;fontSize=14;fontFamily=Helvetica;html=1;rounded=0;shadow=0;comic=0;labelBackgroundColor=none;strokeWidth=1;">
      <mxGeometry x="11320" y="455" width="375" height="267" as="geometry" />
    </mxCell>
    <mxCell id="node26" parent="1" vertex="1" value="&lt;p style=&quot;margin:0px;margin-top:4px;text-align:center;&quot;&gt;&lt;b&gt;PWRJ&lt;/b&gt;&lt;/p&gt;&lt;hr size=&quot;1&quot;/&gt;&lt;p style=&quot;margin:0 0 0 4px;line-height:1.6;&quot;&gt;+ PWRJ(String): &lt;/p&gt;&lt;hr size=&quot;1&quot;/&gt;&lt;p style=&quot;margin:0 0 0 4px;line-height:1.6;&quot;&gt;- feePerByte: long&lt;br/&gt;- chainId: byte&lt;br/&gt;- rpcNodeUrl: String&lt;/p&gt;&lt;hr size=&quot;1&quot;/&gt;&lt;p style=&quot;margin:0 0 0 4px;line-height:1.6;&quot;&gt;+ getOwnerOfVm(long): String&lt;br/&gt;+ broadcastTransaction(byte[]): Response&lt;br/&gt;+ getNonceOfAddress(String): int&lt;br/&gt;+ getBlockByNumber(long): Block&lt;br/&gt;+ getShareValue(String): BigDecimal&lt;br/&gt;+ getOrDefault(JSONObject, String, Object): Object&lt;br/&gt;+ isTransactionValidForGuardianApproval(String): TransactionForGuardianApproval&lt;br/&gt;+ getVMDataTransactionsFilterByBytePrefix(long, long, long, byte[]): VmDataTransaction[]&lt;br/&gt;+ getDelegatedPWR(String, String): long&lt;br/&gt;+ isTransactionValidForGuardianApproval(byte[]): TransactionForGuardianApproval&lt;br/&gt;+ getValidator(String): Validator&lt;br/&gt;+ main(String[]): void&lt;br/&gt;+ getVmIdAddress(long): String&lt;br/&gt;+ getSharesOfDelegator(String, String): long&lt;br/&gt;+ getVMDataTransactions(long, long, long): VmDataTransaction[]&lt;br/&gt;+ getConduitsOfVm(long): List&amp;lt;Validator&amp;gt;&lt;br/&gt;+ httpPost(String, JSONObject): JSONObject&lt;br/&gt;+ httpGet(String): JSONObject&lt;br/&gt;+ getDelegatees(String): List&amp;lt;Validator&amp;gt;&lt;br/&gt;+ isVmAddress(String): boolean&lt;br/&gt;+ getBalanceOfAddress(String): long&lt;br/&gt;+ getGuardianOfAddress(String): String&lt;br/&gt;+ updateFeePerByte(): void&lt;/p&gt;&lt;hr size=&quot;1&quot;/&gt;&lt;p style=&quot;margin:0 0 0 4px;line-height:1.6;&quot;&gt; activeValidators: List&amp;lt;Validator&amp;gt;&lt;br/&gt; activeVotingPower: long&lt;br/&gt; allValidators: List&amp;lt;Validator&amp;gt;&lt;br/&gt; blocksCount: long&lt;br/&gt; totalValidatorsCount: int&lt;br/&gt; feePerByte: long&lt;br/&gt; standbyValidators: List&amp;lt;Validator&amp;gt;&lt;br/&gt; latestBlockNumber: long&lt;br/&gt; totalDelegatorsCount: int&lt;br/&gt; standbyValidatorsCount: int&lt;br/&gt; blockchainVersion: short&lt;br/&gt; rpcNodeUrl: String&lt;br/&gt; chainId: byte&lt;br/&gt; activeValidatorsCount: int&lt;/p&gt;" style="verticalAlign=top;align=left;overflow=fill;fontSize=14;fontFamily=Helvetica;html=1;rounded=0;shadow=0;comic=0;labelBackgroundColor=none;strokeWidth=1;">
      <mxGeometry x="3911" y="-14" width="479" height="949" as="geometry" />
    </mxCell>
    <mxCell id="node29" parent="1" vertex="1" value="&lt;p style=&quot;margin:0px;margin-top:4px;text-align:center;&quot;&gt;&lt;b&gt;PWRWallet&lt;/b&gt;&lt;/p&gt;&lt;hr size=&quot;1&quot;/&gt;&lt;p style=&quot;margin:0 0 0 4px;line-height:1.6;&quot;&gt;+ PWRWallet(String, PWRJ): &lt;br/&gt;+ PWRWallet(PWRJ): &lt;br/&gt;+ PWRWallet(BigInteger, PWRJ): &lt;br/&gt;+ PWRWallet(byte[], PWRJ): &lt;/p&gt;&lt;hr size=&quot;1&quot;/&gt;&lt;p style=&quot;margin:0 0 0 4px;line-height:1.6;&quot;&gt;- privateKey: BigInteger&lt;/p&gt;&lt;hr size=&quot;1&quot;/&gt;&lt;p style=&quot;margin:0 0 0 4px;line-height:1.6;&quot;&gt;+ sendValidatorRemoveTransaction(String, int): Response&lt;br/&gt;+ getSignedDelegateTransaction(String, long, int): byte[]&lt;br/&gt;+ conduitApprove(long, List&amp;lt;byte[]&amp;gt;, int): Response&lt;br/&gt;+ getSignedSetConduitTransaction(long, List&amp;lt;byte[]&amp;gt;, int): byte[]&lt;br/&gt;+ getSignedRemoveGuardianTransaction(int): byte[]&lt;br/&gt;+ getSignedSetGuardianTransaction(String, long, int): byte[]&lt;br/&gt;+ withdraw(String, long, int): Response&lt;br/&gt;+ publicKeyFromPrivate(BigInteger): BigInteger&lt;br/&gt;+ getSignedPayableVmDataTransaction(long, long, byte[], int): byte[]&lt;br/&gt;+ publicPointFromPrivate(BigInteger): ECPoint&lt;br/&gt;+ delegate(String, long, int): Response&lt;br/&gt;+ getSignedConduitApprovalTransaction(long, List&amp;lt;byte[]&amp;gt;, int): byte[]&lt;br/&gt;+ transferPWR(String, long, int): Response&lt;br/&gt;+ getSignedTransaction(byte[]): byte[]&lt;br/&gt;+ getSignedJoinTransaction(String, int): byte[]&lt;br/&gt;+ getSignedMoveStakeTransaction(long, String, String, int): byte[]&lt;br/&gt;+ moveStake(long, String, String, int): Response&lt;br/&gt;+ claimVmId(long, int): Response&lt;br/&gt;+ setConduits(long, List&amp;lt;byte[]&amp;gt;, int): Response&lt;br/&gt;+ setGuardian(String, long, int): Response&lt;br/&gt;+ getSignedWithdrawTransaction(String, long, int): byte[]&lt;br/&gt;+ publicKeyToAddress(BigInteger): String&lt;br/&gt;+ sendPayableVmDataTransaction(long, long, byte[], int): Response&lt;br/&gt;+ claimActiveNodeSpot(int): Response&lt;br/&gt;+ getSignedVmDataTransaction(long, byte[], int): byte[]&lt;br/&gt;+ getSignedGuardianApprovalTransaction(List&amp;lt;byte[]&amp;gt;, int): byte[]&lt;br/&gt;+ removeGuardian(int): Response&lt;br/&gt;+ join(String, int): Response&lt;br/&gt;+ getSignedValidatorRemoveTransaction(String, int): byte[]&lt;br/&gt;+ getSignedClaimActiveNodeSpotTransaction(int): byte[]&lt;br/&gt;+ getSignedClaimVmIdTransaction(long, int): byte[]&lt;br/&gt;+ sendVmDataTransaction(long, byte[], int): Response&lt;br/&gt;+ getSignedTransferPWRTransaction(String, long, int): byte[]&lt;br/&gt;+ sendGuardianApprovalTransaction(List&amp;lt;byte[]&amp;gt;, int): Response&lt;/p&gt;&lt;hr size=&quot;1&quot;/&gt;&lt;p style=&quot;margin:0 0 0 4px;line-height:1.6;&quot;&gt; privateKey: BigInteger&lt;br/&gt; address: String&lt;br/&gt; nonce: int&lt;br/&gt; balance: long&lt;/p&gt;" style="verticalAlign=top;align=left;overflow=fill;fontSize=14;fontFamily=Helvetica;html=1;rounded=0;shadow=0;comic=0;labelBackgroundColor=none;strokeWidth=1;">
      <mxGeometry x="1353" y="77" width="419" height="993" as="geometry" />
    </mxCell>
    <mxCell id="node9" parent="1" vertex="1" value="&lt;p style=&quot;margin:0px;margin-top:4px;text-align:center;&quot;&gt;&lt;b&gt;PayableVmDataTransaction&lt;/b&gt;&lt;/p&gt;&lt;hr size=&quot;1&quot;/&gt;&lt;p style=&quot;margin:0 0 0 4px;line-height:1.6;&quot;&gt;+ PayableVmDataTransaction(JSONObject, long, long, int): &lt;br/&gt;# PayableVmDataTransaction(PayableVmDataTransactionBuilder&amp;lt;?, ?&amp;gt;): &lt;/p&gt;&lt;hr size=&quot;1&quot;/&gt;&lt;p style=&quot;margin:0 0 0 4px;line-height:1.6;&quot;&gt;- vmId: long&lt;br/&gt;- data: String&lt;/p&gt;&lt;hr size=&quot;1&quot;/&gt;&lt;p style=&quot;margin:0 0 0 4px;line-height:1.6;&quot;&gt;+ toJSON(): JSONObject&lt;br/&gt;+ builder(): PayableVmDataTransactionBuilder&amp;lt;?, ?&amp;gt;&lt;/p&gt;&lt;hr size=&quot;1&quot;/&gt;&lt;p style=&quot;margin:0 0 0 4px;line-height:1.6;&quot;&gt; data: String&lt;br/&gt; vmId: long&lt;/p&gt;" style="verticalAlign=top;align=left;overflow=fill;fontSize=14;fontFamily=Helvetica;html=1;rounded=0;shadow=0;comic=0;labelBackgroundColor=none;strokeWidth=1;">
      <mxGeometry x="8850" y="524" width="403" height="223" as="geometry" />
    </mxCell>
    <mxCell id="node8" parent="1" vertex="1" value="&lt;p style=&quot;margin:0px;margin-top:4px;text-align:center;&quot;&gt;&lt;b&gt;RemoveConduitsTransaction&lt;/b&gt;&lt;/p&gt;&lt;hr size=&quot;1&quot;/&gt;&lt;p style=&quot;margin:0 0 0 4px;line-height:1.6;&quot;&gt;# RemoveConduitsTransaction(RemoveConduitsTransactionBuilder&amp;lt;?, ?&amp;gt;): &lt;br/&gt;+ RemoveConduitsTransaction(JSONObject, long, long, int): &lt;/p&gt;&lt;hr size=&quot;1&quot;/&gt;&lt;p style=&quot;margin:0 0 0 4px;line-height:1.6;&quot;&gt;- vmId: long&lt;br/&gt;- conduits: String[]&lt;/p&gt;&lt;hr size=&quot;1&quot;/&gt;&lt;p style=&quot;margin:0 0 0 4px;line-height:1.6;&quot;&gt;+ toJSON(): JSONObject&lt;br/&gt;+ builder(): RemoveConduitsTransactionBuilder&amp;lt;?, ?&amp;gt;&lt;/p&gt;&lt;hr size=&quot;1&quot;/&gt;&lt;p style=&quot;margin:0 0 0 4px;line-height:1.6;&quot;&gt; conduits: String[]&lt;br/&gt; vmId: long&lt;/p&gt;" style="verticalAlign=top;align=left;overflow=fill;fontSize=14;fontFamily=Helvetica;html=1;rounded=0;shadow=0;comic=0;labelBackgroundColor=none;strokeWidth=1;">
      <mxGeometry x="10081" y="480" width="404" height="223" as="geometry" />
    </mxCell>
    <mxCell id="node1" parent="1" vertex="1" value="&lt;p style=&quot;margin:0px;margin-top:4px;text-align:center;&quot;&gt;&lt;b&gt;RemoveGuardianTransaction&lt;/b&gt;&lt;/p&gt;&lt;hr size=&quot;1&quot;/&gt;&lt;p style=&quot;margin:0 0 0 4px;line-height:1.6;&quot;&gt;# RemoveGuardianTransaction(RemoveGuardianTransactionBuilder&amp;lt;?, ?&amp;gt;): &lt;br/&gt;+ RemoveGuardianTransaction(JSONObject, long, long, int): &lt;/p&gt;&lt;hr size=&quot;1&quot;/&gt;&lt;p style=&quot;margin:0 0 0 4px;line-height:1.6;&quot;&gt;+ builder(): RemoveGuardianTransactionBuilder&amp;lt;?, ?&amp;gt;&lt;/p&gt;" style="verticalAlign=top;align=left;overflow=fill;fontSize=14;fontFamily=Helvetica;html=1;rounded=0;shadow=0;comic=0;labelBackgroundColor=none;strokeWidth=1;">
      <mxGeometry x="11756" y="537" width="405" height="111" as="geometry" />
    </mxCell>
    <mxCell id="node19" parent="1" vertex="1" value="&lt;p style=&quot;margin:0px;margin-top:4px;text-align:center;&quot;&gt;&lt;b&gt;Response&lt;/b&gt;&lt;/p&gt;&lt;hr size=&quot;1&quot;/&gt;&lt;p style=&quot;margin:0 0 0 4px;line-height:1.6;&quot;&gt;+ Response(boolean, String, String): &lt;/p&gt;&lt;hr size=&quot;1&quot;/&gt;&lt;p style=&quot;margin:0 0 0 4px;line-height:1.6;&quot;&gt;- success: boolean&lt;br/&gt;- error: String&lt;br/&gt;- transactionHash: String&lt;/p&gt;&lt;hr size=&quot;1&quot;/&gt;&lt;p style=&quot;margin:0 0 0 4px;line-height:1.6;&quot;&gt;+ toString(): String&lt;/p&gt;&lt;hr size=&quot;1&quot;/&gt;&lt;p style=&quot;margin:0 0 0 4px;line-height:1.6;&quot;&gt; transactionHash: String&lt;br/&gt; success: boolean&lt;br/&gt; error: String&lt;/p&gt;" style="verticalAlign=top;align=left;overflow=fill;fontSize=14;fontFamily=Helvetica;html=1;rounded=0;shadow=0;comic=0;labelBackgroundColor=none;strokeWidth=1;">
      <mxGeometry x="3173" y="361" width="233" height="223" as="geometry" />
    </mxCell>
    <mxCell id="node12" parent="1" vertex="1" value="&lt;p style=&quot;margin:0px;margin-top:4px;text-align:center;&quot;&gt;&lt;b&gt;SetConduitsTransactions&lt;/b&gt;&lt;/p&gt;&lt;hr size=&quot;1&quot;/&gt;&lt;p style=&quot;margin:0 0 0 4px;line-height:1.6;&quot;&gt;+ SetConduitsTransactions(JSONObject, long, long, int): &lt;br/&gt;# SetConduitsTransactions(SetConduitsTransactionsBuilder&amp;lt;?, ?&amp;gt;): &lt;/p&gt;&lt;hr size=&quot;1&quot;/&gt;&lt;p style=&quot;margin:0 0 0 4px;line-height:1.6;&quot;&gt;- vmId: long&lt;br/&gt;- conduits: String[]&lt;/p&gt;&lt;hr size=&quot;1&quot;/&gt;&lt;p style=&quot;margin:0 0 0 4px;line-height:1.6;&quot;&gt;+ builder(): SetConduitsTransactionsBuilder&amp;lt;?, ?&amp;gt;&lt;br/&gt;+ toJSON(): JSONObject&lt;/p&gt;&lt;hr size=&quot;1&quot;/&gt;&lt;p style=&quot;margin:0 0 0 4px;line-height:1.6;&quot;&gt; conduits: String[]&lt;br/&gt; vmId: long&lt;/p&gt;" style="verticalAlign=top;align=left;overflow=fill;fontSize=14;fontFamily=Helvetica;html=1;rounded=0;shadow=0;comic=0;labelBackgroundColor=none;strokeWidth=1;">
      <mxGeometry x="6833" y="277" width="389" height="223" as="geometry" />
    </mxCell>
    <mxCell id="node22" parent="1" vertex="1" value="&lt;p style=&quot;margin:0px;margin-top:4px;text-align:center;&quot;&gt;&lt;b&gt;SetGuardianTransaction&lt;/b&gt;&lt;/p&gt;&lt;hr size=&quot;1&quot;/&gt;&lt;p style=&quot;margin:0 0 0 4px;line-height:1.6;&quot;&gt;+ SetGuardianTransaction(JSONObject, long, long, int): &lt;br/&gt;# SetGuardianTransaction(SetGuardianTransactionBuilder&amp;lt;?, ?&amp;gt;): &lt;/p&gt;&lt;hr size=&quot;1&quot;/&gt;&lt;p style=&quot;margin:0 0 0 4px;line-height:1.6;&quot;&gt;- expiryDate: long&lt;br/&gt;- guardian: String&lt;/p&gt;&lt;hr size=&quot;1&quot;/&gt;&lt;p style=&quot;margin:0 0 0 4px;line-height:1.6;&quot;&gt;+ toJSON(): JSONObject&lt;br/&gt;+ builder(): SetGuardianTransactionBuilder&amp;lt;?, ?&amp;gt;&lt;/p&gt;&lt;hr size=&quot;1&quot;/&gt;&lt;p style=&quot;margin:0 0 0 4px;line-height:1.6;&quot;&gt; expiryDate: long&lt;br/&gt; guardian: String&lt;/p&gt;" style="verticalAlign=top;align=left;overflow=fill;fontSize=14;fontFamily=Helvetica;html=1;rounded=0;shadow=0;comic=0;labelBackgroundColor=none;strokeWidth=1;">
      <mxGeometry x="3465" y="645" width="386" height="223" as="geometry" />
    </mxCell>
    <mxCell id="node7" parent="1" vertex="1" value="&lt;p style=&quot;margin:0px;margin-top:4px;text-align:center;&quot;&gt;&lt;b&gt;Signature&lt;/b&gt;&lt;/p&gt;&lt;hr size=&quot;1&quot;/&gt;&lt;p style=&quot;margin:0 0 0 4px;line-height:1.6;&quot;&gt;+ Signature(): &lt;/p&gt;&lt;hr size=&quot;1&quot;/&gt;&lt;p style=&quot;margin:0 0 0 4px;line-height:1.6;&quot;&gt;+ signMessage(byte[], BigInteger): byte[]&lt;br/&gt;- decompressKey(BigInteger, boolean): ECPoint&lt;br/&gt;+ verifyPrecondition(boolean, String): void&lt;br/&gt;+ sign(BigInteger, byte[]): ECDSASignature&lt;br/&gt;+ publicPointFromPrivate(BigInteger): ECPoint&lt;br/&gt;+ recoverFromSignature(int, ECDSASignature, byte[]): BigInteger&lt;br/&gt;+ toBytesPadded(BigInteger, int): byte[]&lt;br/&gt;+ publicKeyFromPrivate(BigInteger): BigInteger&lt;/p&gt;" style="verticalAlign=top;align=left;overflow=fill;fontSize=14;fontFamily=Helvetica;html=1;rounded=0;shadow=0;comic=0;labelBackgroundColor=none;strokeWidth=1;">
      <mxGeometry x="8095" y="570" width="382" height="235" as="geometry" />
    </mxCell>
    <mxCell id="node20" parent="1" vertex="1" value="&lt;p style=&quot;margin:0px;margin-top:4px;text-align:center;&quot;&gt;&lt;b&gt;Transaction&lt;/b&gt;&lt;/p&gt;&lt;hr size=&quot;1&quot;/&gt;&lt;p style=&quot;margin:0 0 0 4px;line-height:1.6;&quot;&gt;+ Transaction(JSONObject, long, long, int): &lt;br/&gt;# Transaction(TransactionBuilder&amp;lt;?, ?&amp;gt;): &lt;/p&gt;&lt;hr size=&quot;1&quot;/&gt;&lt;p style=&quot;margin:0 0 0 4px;line-height:1.6;&quot;&gt;- value: long&lt;br/&gt;- positionInTheBlock: int&lt;br/&gt;- nonce: int&lt;br/&gt;- size: int&lt;br/&gt;- type: String&lt;br/&gt;- rawTransaction: byte[]&lt;br/&gt;- receiver: String&lt;br/&gt;- hash: String&lt;br/&gt;- fee: long&lt;br/&gt;- sender: String&lt;br/&gt;- timestamp: long&lt;br/&gt;- blockNumber: long&lt;br/&gt;+ chainId: byte&lt;/p&gt;&lt;hr size=&quot;1&quot;/&gt;&lt;p style=&quot;margin:0 0 0 4px;line-height:1.6;&quot;&gt;+ toJSON(): JSONObject&lt;br/&gt;+ main(String[]): void&lt;br/&gt;+ builder(): TransactionBuilder&amp;lt;?, ?&amp;gt;&lt;br/&gt;+ fromJSON(JSONObject, long, long, int): Transaction&lt;/p&gt;&lt;hr size=&quot;1&quot;/&gt;&lt;p style=&quot;margin:0 0 0 4px;line-height:1.6;&quot;&gt; positionInTheBlock: int&lt;br/&gt; sender: String&lt;br/&gt; type: String&lt;br/&gt; hash: String&lt;br/&gt; nonce: int&lt;br/&gt; blockNumber: long&lt;br/&gt; value: long&lt;br/&gt; receiver: String&lt;br/&gt; rawTransaction: byte[]&lt;br/&gt; size: int&lt;br/&gt; fee: long&lt;br/&gt; timestamp: long&lt;br/&gt; chainId: byte&lt;/p&gt;" style="verticalAlign=top;align=left;overflow=fill;fontSize=14;fontFamily=Helvetica;html=1;rounded=0;shadow=0;comic=0;labelBackgroundColor=none;strokeWidth=1;">
      <mxGeometry x="316" y="213" width="324" height="751" as="geometry" />
    </mxCell>
    <mxCell id="node27" parent="1" vertex="1" value="&lt;p style=&quot;margin:0px;margin-top:4px;text-align:center;&quot;&gt;&lt;b&gt;TransactionBuilder&lt;/b&gt;&lt;/p&gt;&lt;hr size=&quot;1&quot;/&gt;&lt;p style=&quot;margin:0 0 0 4px;line-height:1.6;&quot;&gt;+ TransactionBuilder(): &lt;/p&gt;&lt;hr size=&quot;1&quot;/&gt;&lt;p style=&quot;margin:0 0 0 4px;line-height:1.6;&quot;&gt;+ getJoinTransaction(String, int, byte): byte[]&lt;br/&gt;+ getSetGuardianTransaction(String, long, int, byte): byte[]&lt;br/&gt;+ getPayableVmDataTransaction(long, long, byte[], int, byte): byte[]&lt;br/&gt;+ getConduitApprovalTransaction(long, List&amp;lt;byte[]&amp;gt;, int, byte): byte[]&lt;br/&gt;- assetAddressValidity(String): void&lt;br/&gt;+ getValidatorRemoveTransaction(String, int, byte): byte[]&lt;br/&gt;+ getRemoveGuardianTransaction(int, byte): byte[]&lt;br/&gt;+ getSetConduitsTransaction(long, List&amp;lt;byte[]&amp;gt;, int, byte): byte[]&lt;br/&gt;+ getVmDataTransaction(long, byte[], int, byte): byte[]&lt;br/&gt;+ getClaimVmIdTransaction(long, int, byte): byte[]&lt;br/&gt;+ getClaimActiveNodeSpotTransaction(int, byte): byte[]&lt;br/&gt;+ getGuardianApprovalTransaction(List&amp;lt;byte[]&amp;gt;, int, byte): byte[]&lt;br/&gt;+ getDelegateTransaction(String, long, int, byte): byte[]&lt;br/&gt;+ getTransferPWRTransaction(String, long, int, byte): byte[]&lt;br/&gt;+ getRemoveConduitsTransaction(long, List&amp;lt;byte[]&amp;gt;, int, byte): byte[]&lt;br/&gt;- getTransactionBase(byte, int, byte): byte[]&lt;br/&gt;+ getWithdrawTransaction(String, long, int, byte): byte[]&lt;br/&gt;+ getAddConduitsTransaction(long, List&amp;lt;byte[]&amp;gt;, int, byte): byte[]&lt;br/&gt;+ getMoveStakeTransaction(long, String, String, int, byte): byte[]&lt;/p&gt;" style="verticalAlign=top;align=left;overflow=fill;fontSize=14;fontFamily=Helvetica;html=1;rounded=0;shadow=0;comic=0;labelBackgroundColor=none;strokeWidth=1;">
      <mxGeometry x="2283" y="277" width="413" height="477" as="geometry" />
    </mxCell>
    <mxCell id="node11" parent="1" vertex="1" value="&lt;p style=&quot;margin:0px;margin-top:4px;text-align:center;&quot;&gt;&lt;b&gt;TransactionDecoder&lt;/b&gt;&lt;/p&gt;&lt;hr size=&quot;1&quot;/&gt;&lt;p style=&quot;margin:0 0 0 4px;line-height:1.6;&quot;&gt;+ TransactionDecoder(): &lt;/p&gt;&lt;hr size=&quot;1&quot;/&gt;&lt;p style=&quot;margin:0 0 0 4px;line-height:1.6;&quot;&gt;- getSender(byte[]): byte[]&lt;br/&gt;- decodeGuardianApprovalTxn(byte[], byte[], int): Transaction&lt;br/&gt;+ decode(byte[]): Transaction&lt;br/&gt;+ getSigner(byte[], byte[]): byte[]&lt;br/&gt;- decodeConduitApprovalTxn(byte[], byte[], int): Transaction&lt;br/&gt;- decodeSetGuardianTxn(byte[], byte[], int): Transaction&lt;br/&gt;- decodeClaimSpot(byte[], byte[], int): Transaction&lt;br/&gt;- decodeWithdraw(byte[], byte[], int): Transaction&lt;br/&gt;- decodeMoveStakeTxn(byte[], byte[], int): Transaction&lt;br/&gt;- decodeClaimVmId(byte[], byte[], int): Transaction&lt;br/&gt;- decodePayableVmDataTxn(byte[], byte[], int): Transaction&lt;br/&gt;- decodeTransfer(byte[], byte[], int): Transaction&lt;br/&gt;- decodeDelegate(byte[], byte[], int): Transaction&lt;br/&gt;- decodeRemoveConduitsTxn(byte[], byte[], int): Transaction&lt;br/&gt;- decodeVmDataTxn(byte[], byte[], int): Transaction&lt;br/&gt;- decodeRemoveGuardianTxn(byte[], byte[], int): Transaction&lt;br/&gt;+ decode(byte[], byte[]): Transaction&lt;br/&gt;- decodeJoin(byte[], byte[], int): Transaction&lt;br/&gt;- decodeSetConduitsTxn(byte[], byte[], int): Transaction&lt;br/&gt;- decodeAddConduitsTxn(byte[], byte[], int): Transaction&lt;/p&gt;" style="verticalAlign=top;align=left;overflow=fill;fontSize=14;fontFamily=Helvetica;html=1;rounded=0;shadow=0;comic=0;labelBackgroundColor=none;strokeWidth=1;">
      <mxGeometry x="7276" y="563" width="369" height="499" as="geometry" />
    </mxCell>
    <mxCell id="node14" parent="1" vertex="1" value="&lt;p style=&quot;margin:0px;margin-top:4px;text-align:center;&quot;&gt;&lt;b&gt;TransactionForGuardianApproval&lt;/b&gt;&lt;/p&gt;&lt;hr size=&quot;1&quot;/&gt;&lt;p style=&quot;margin:0 0 0 4px;line-height:1.6;&quot;&gt;# TransactionForGuardianApproval(TransactionForGuardianApprovalBuilder&amp;lt;?, ?&amp;gt;): &lt;/p&gt;&lt;hr size=&quot;1&quot;/&gt;&lt;p style=&quot;margin:0 0 0 4px;line-height:1.6;&quot;&gt;- valid: boolean&lt;br/&gt;- errorMessage: String&lt;br/&gt;- guardianAddress: String&lt;br/&gt;- transaction: Transaction&lt;/p&gt;&lt;hr size=&quot;1&quot;/&gt;&lt;p style=&quot;margin:0 0 0 4px;line-height:1.6;&quot;&gt;+ builder(): TransactionForGuardianApprovalBuilder&amp;lt;?, ?&amp;gt;&lt;/p&gt;&lt;hr size=&quot;1&quot;/&gt;&lt;p style=&quot;margin:0 0 0 4px;line-height:1.6;&quot;&gt; transaction: Transaction&lt;br/&gt; errorMessage: String&lt;br/&gt; valid: boolean&lt;br/&gt; guardianAddress: String&lt;/p&gt;" style="verticalAlign=top;align=left;overflow=fill;fontSize=14;fontFamily=Helvetica;html=1;rounded=0;shadow=0;comic=0;labelBackgroundColor=none;strokeWidth=1;">
      <mxGeometry x="5758" y="594" width="385" height="267" as="geometry" />
    </mxCell>
    <mxCell id="node10" parent="1" vertex="1" value="&lt;p style=&quot;margin:0px;margin-top:4px;text-align:center;&quot;&gt;&lt;b&gt;TransferTransaction&lt;/b&gt;&lt;/p&gt;&lt;hr size=&quot;1&quot;/&gt;&lt;p style=&quot;margin:0 0 0 4px;line-height:1.6;&quot;&gt;# TransferTransaction(TransferTransactionBuilder&amp;lt;?, ?&amp;gt;): &lt;br/&gt;+ TransferTransaction(JSONObject, long, long, int): &lt;/p&gt;&lt;hr size=&quot;1&quot;/&gt;&lt;p style=&quot;margin:0 0 0 4px;line-height:1.6;&quot;&gt;+ builder(): TransferTransactionBuilder&amp;lt;?, ?&amp;gt;&lt;/p&gt;" style="verticalAlign=top;align=left;overflow=fill;fontSize=14;fontFamily=Helvetica;html=1;rounded=0;shadow=0;comic=0;labelBackgroundColor=none;strokeWidth=1;">
      <mxGeometry x="7699" y="397" width="342" height="111" as="geometry" />
    </mxCell>
    <mxCell id="node4" parent="1" vertex="1" value="&lt;p style=&quot;margin:0px;margin-top:4px;text-align:center;&quot;&gt;&lt;b&gt;Validator&lt;/b&gt;&lt;/p&gt;&lt;hr size=&quot;1&quot;/&gt;&lt;p style=&quot;margin:0 0 0 4px;line-height:1.6;&quot;&gt;+ Validator(JSONObject): &lt;br/&gt;# Validator(ValidatorBuilder&amp;lt;?, ?&amp;gt;): &lt;/p&gt;&lt;hr size=&quot;1&quot;/&gt;&lt;p style=&quot;margin:0 0 0 4px;line-height:1.6;&quot;&gt;- votingPower: long&lt;br/&gt;- ip: String&lt;br/&gt;- delegatorsCount: int&lt;br/&gt;- status: String&lt;br/&gt;- isBadActor: boolean&lt;br/&gt;- shares: long&lt;br/&gt;- address: String&lt;/p&gt;&lt;hr size=&quot;1&quot;/&gt;&lt;p style=&quot;margin:0 0 0 4px;line-height:1.6;&quot;&gt;+ builder(): ValidatorBuilder&amp;lt;?, ?&amp;gt;&lt;br/&gt;+ getDelegators(PWRJ): List&amp;lt;Delegator&amp;gt;&lt;/p&gt;&lt;hr size=&quot;1&quot;/&gt;&lt;p style=&quot;margin:0 0 0 4px;line-height:1.6;&quot;&gt; votingPower: long&lt;br/&gt; ip: String&lt;br/&gt; status: String&lt;br/&gt; shares: long&lt;br/&gt; address: String&lt;br/&gt; delegatorsCount: int&lt;br/&gt; isBadActor: boolean&lt;/p&gt;" style="verticalAlign=top;align=left;overflow=fill;fontSize=14;fontFamily=Helvetica;html=1;rounded=0;shadow=0;comic=0;labelBackgroundColor=none;strokeWidth=1;">
      <mxGeometry x="8538" y="325" width="252" height="443" as="geometry" />
    </mxCell>
    <mxCell id="node25" parent="1" vertex="1" value="&lt;p style=&quot;margin:0px;margin-top:4px;text-align:center;&quot;&gt;&lt;b&gt;VmDataTransaction&lt;/b&gt;&lt;/p&gt;&lt;hr size=&quot;1&quot;/&gt;&lt;p style=&quot;margin:0 0 0 4px;line-height:1.6;&quot;&gt;+ VmDataTransaction(JSONObject, long, long, int): &lt;br/&gt;# VmDataTransaction(VmDataTransactionBuilder&amp;lt;?, ?&amp;gt;): &lt;/p&gt;&lt;hr size=&quot;1&quot;/&gt;&lt;p style=&quot;margin:0 0 0 4px;line-height:1.6;&quot;&gt;- data: String&lt;br/&gt;- vmId: long&lt;/p&gt;&lt;hr size=&quot;1&quot;/&gt;&lt;p style=&quot;margin:0 0 0 4px;line-height:1.6;&quot;&gt;+ builder(): VmDataTransactionBuilder&amp;lt;?, ?&amp;gt;&lt;br/&gt;+ toJSON(): JSONObject&lt;/p&gt;&lt;hr size=&quot;1&quot;/&gt;&lt;p style=&quot;margin:0 0 0 4px;line-height:1.6;&quot;&gt; data: String&lt;br/&gt; vmId: long&lt;/p&gt;" style="verticalAlign=top;align=left;overflow=fill;fontSize=14;fontFamily=Helvetica;html=1;rounded=0;shadow=0;comic=0;labelBackgroundColor=none;strokeWidth=1;">
      <mxGeometry x="951" y="480" width="341" height="223" as="geometry" />
    </mxCell>
    <mxCell id="node23" parent="1" vertex="1" value="&lt;p style=&quot;margin:0px;margin-top:4px;text-align:center;&quot;&gt;&lt;b&gt;WithdrawTransaction&lt;/b&gt;&lt;/p&gt;&lt;hr size=&quot;1&quot;/&gt;&lt;p style=&quot;margin:0 0 0 4px;line-height:1.6;&quot;&gt;# WithdrawTransaction(WithdrawTransactionBuilder&amp;lt;?, ?&amp;gt;): &lt;br/&gt;+ WithdrawTransaction(JSONObject, long, long, int): &lt;/p&gt;&lt;hr size=&quot;1&quot;/&gt;&lt;p style=&quot;margin:0 0 0 4px;line-height:1.6;&quot;&gt;- validator: String&lt;br/&gt;- shares: long&lt;/p&gt;&lt;hr size=&quot;1&quot;/&gt;&lt;p style=&quot;margin:0 0 0 4px;line-height:1.6;&quot;&gt;+ toJSON(): JSONObject&lt;br/&gt;+ builder(): WithdrawTransactionBuilder&amp;lt;?, ?&amp;gt;&lt;/p&gt;&lt;hr size=&quot;1&quot;/&gt;&lt;p style=&quot;margin:0 0 0 4px;line-height:1.6;&quot;&gt; shares: long&lt;br/&gt; validator: String&lt;/p&gt;" style="verticalAlign=top;align=left;overflow=fill;fontSize=14;fontFamily=Helvetica;html=1;rounded=0;shadow=0;comic=0;labelBackgroundColor=none;strokeWidth=1;">
      <mxGeometry x="2756" y="583" width="357" height="223" as="geometry" />
    </mxCell>
    <mxCell id="edge13" edge="1" value="" parent="1" source="node18" target="node20" style="html=1;rounded=1;edgeStyle=orthogonalEdgeStyle;dashed=0;startArrow=none;endArrow=block;endSize=12;strokeColor=#000082;exitX=0.500;exitY=1.000;exitDx=0;exitDy=0;entryX=0.500;entryY=1.000;entryDx=0;entryDy=0;">
      <mxGeometry width="50" height="50" relative="1" as="geometry">
        <Array as="points">
          <mxPoint x="5574" y="529" />
          <mxPoint x="6464" y="529" />
          <mxPoint x="6464" y="1087" />
          <mxPoint x="478" y="1087" />
        </Array>
      </mxGeometry>
    </mxCell>
    <mxCell id="edge8" edge="1" value="" parent="1" source="node17" target="node20" style="html=1;rounded=1;edgeStyle=orthogonalEdgeStyle;dashed=0;startArrow=none;endArrow=block;endSize=12;strokeColor=#000082;exitX=0.500;exitY=1.000;exitDx=0;exitDy=0;entryX=0.500;entryY=1.000;entryDx=0;entryDy=0;">
      <mxGeometry width="50" height="50" relative="1" as="geometry">
        <Array as="points">
          <mxPoint x="6335" y="529" />
          <mxPoint x="6464" y="529" />
          <mxPoint x="6464" y="1087" />
          <mxPoint x="478" y="1087" />
        </Array>
      </mxGeometry>
    </mxCell>
    <mxCell id="edge3" edge="1" value="" parent="1" source="node21" target="node20" style="html=1;rounded=1;edgeStyle=orthogonalEdgeStyle;dashed=0;startArrow=none;endArrow=block;endSize=12;strokeColor=#000082;exitX=0.500;exitY=0.000;exitDx=0;exitDy=0;entryX=0.500;entryY=1.000;entryDx=0;entryDy=0;">
      <mxGeometry width="50" height="50" relative="1" as="geometry">
        <Array as="points">
          <mxPoint x="5180" y="529" />
          <mxPoint x="6464" y="529" />
          <mxPoint x="6464" y="1087" />
          <mxPoint x="478" y="1087" />
        </Array>
      </mxGeometry>
    </mxCell>
    <mxCell id="edge15" edge="1" value="" parent="1" source="node24" target="node20" style="html=1;rounded=1;edgeStyle=orthogonalEdgeStyle;dashed=0;startArrow=none;endArrow=block;endSize=12;strokeColor=#000082;exitX=0.500;exitY=1.000;exitDx=0;exitDy=0;entryX=0.500;entryY=1.000;entryDx=0;entryDy=0;">
      <mxGeometry width="50" height="50" relative="1" as="geometry">
        <Array as="points">
          <mxPoint x="2027" y="1087" />
          <mxPoint x="478" y="1087" />
        </Array>
      </mxGeometry>
    </mxCell>
    <mxCell id="edge14" edge="1" value="" parent="1" source="node6" target="node20" style="html=1;rounded=1;edgeStyle=orthogonalEdgeStyle;dashed=0;startArrow=none;endArrow=block;endSize=12;strokeColor=#000082;exitX=0.500;exitY=0.000;exitDx=0;exitDy=0;entryX=0.500;entryY=1.000;entryDx=0;entryDy=0;">
      <mxGeometry width="50" height="50" relative="1" as="geometry">
        <Array as="points">
          <mxPoint x="10723" y="240" />
          <mxPoint x="6135" y="240" />
          <mxPoint x="6135" y="529" />
          <mxPoint x="6464" y="529" />
          <mxPoint x="6464" y="1087" />
          <mxPoint x="478" y="1087" />
        </Array>
      </mxGeometry>
    </mxCell>
    <mxCell id="edge9" edge="1" value="" parent="1" source="node28" target="node20" style="html=1;rounded=1;edgeStyle=orthogonalEdgeStyle;dashed=0;startArrow=none;endArrow=block;endSize=12;strokeColor=#000082;exitX=0.500;exitY=1.000;exitDx=0;exitDy=0;entryX=0.500;entryY=1.000;entryDx=0;entryDy=0;">
      <mxGeometry width="50" height="50" relative="1" as="geometry">
        <Array as="points">
          <mxPoint x="61" y="1087" />
          <mxPoint x="478" y="1087" />
        </Array>
      </mxGeometry>
    </mxCell>
    <mxCell id="edge7" edge="1" value="" parent="1" source="node5" target="node20" style="html=1;rounded=1;edgeStyle=orthogonalEdgeStyle;dashed=0;startArrow=none;endArrow=block;endSize=12;strokeColor=#000082;exitX=0.500;exitY=0.000;exitDx=0;exitDy=0;entryX=0.500;entryY=1.000;entryDx=0;entryDy=0;">
      <mxGeometry width="50" height="50" relative="1" as="geometry">
        <Array as="points">
          <mxPoint x="11109" y="240" />
          <mxPoint x="6135" y="240" />
          <mxPoint x="6135" y="529" />
          <mxPoint x="6464" y="529" />
          <mxPoint x="6464" y="1087" />
          <mxPoint x="478" y="1087" />
        </Array>
      </mxGeometry>
    </mxCell>
    <mxCell id="edge11" edge="1" value="" parent="1" source="node3" target="node20" style="html=1;rounded=1;edgeStyle=orthogonalEdgeStyle;dashed=0;startArrow=none;endArrow=block;endSize=12;strokeColor=#000082;exitX=0.500;exitY=0.000;exitDx=0;exitDy=0;entryX=0.500;entryY=1.000;entryDx=0;entryDy=0;">
      <mxGeometry width="50" height="50" relative="1" as="geometry">
        <Array as="points">
          <mxPoint x="11507" y="240" />
          <mxPoint x="6135" y="240" />
          <mxPoint x="6135" y="529" />
          <mxPoint x="6464" y="529" />
          <mxPoint x="6464" y="1087" />
          <mxPoint x="478" y="1087" />
        </Array>
      </mxGeometry>
    </mxCell>
    <mxCell id="edge4" edge="1" value="" parent="1" source="node9" target="node20" style="html=1;rounded=1;edgeStyle=orthogonalEdgeStyle;dashed=0;startArrow=none;endArrow=block;endSize=12;strokeColor=#000082;exitX=0.500;exitY=0.000;exitDx=0;exitDy=0;entryX=0.500;entryY=1.000;entryDx=0;entryDy=0;">
      <mxGeometry width="50" height="50" relative="1" as="geometry">
        <Array as="points">
          <mxPoint x="9051" y="240" />
          <mxPoint x="6135" y="240" />
          <mxPoint x="6135" y="529" />
          <mxPoint x="6464" y="529" />
          <mxPoint x="6464" y="1087" />
          <mxPoint x="478" y="1087" />
        </Array>
      </mxGeometry>
    </mxCell>
    <mxCell id="edge0" edge="1" value="" parent="1" source="node8" target="node20" style="html=1;rounded=1;edgeStyle=orthogonalEdgeStyle;dashed=0;startArrow=none;endArrow=block;endSize=12;strokeColor=#000082;exitX=0.500;exitY=0.000;exitDx=0;exitDy=0;entryX=0.500;entryY=1.000;entryDx=0;entryDy=0;">
      <mxGeometry width="50" height="50" relative="1" as="geometry">
        <Array as="points">
          <mxPoint x="10283" y="240" />
          <mxPoint x="6135" y="240" />
          <mxPoint x="6135" y="529" />
          <mxPoint x="6464" y="529" />
          <mxPoint x="6464" y="1087" />
          <mxPoint x="478" y="1087" />
        </Array>
      </mxGeometry>
    </mxCell>
    <mxCell id="edge12" edge="1" value="" parent="1" source="node1" target="node20" style="html=1;rounded=1;edgeStyle=orthogonalEdgeStyle;dashed=0;startArrow=none;endArrow=block;endSize=12;strokeColor=#000082;exitX=0.500;exitY=0.000;exitDx=0;exitDy=0;entryX=0.500;entryY=1.000;entryDx=0;entryDy=0;">
      <mxGeometry width="50" height="50" relative="1" as="geometry">
        <Array as="points">
          <mxPoint x="11959" y="240" />
          <mxPoint x="6135" y="240" />
          <mxPoint x="6135" y="529" />
          <mxPoint x="6464" y="529" />
          <mxPoint x="6464" y="1087" />
          <mxPoint x="478" y="1087" />
        </Array>
      </mxGeometry>
    </mxCell>
    <mxCell id="edge10" edge="1" value="" parent="1" source="node12" target="node20" style="html=1;rounded=1;edgeStyle=orthogonalEdgeStyle;dashed=0;startArrow=none;endArrow=block;endSize=12;strokeColor=#000082;exitX=0.500;exitY=1.000;exitDx=0;exitDy=0;entryX=0.500;entryY=1.000;entryDx=0;entryDy=0;">
      <mxGeometry width="50" height="50" relative="1" as="geometry">
        <Array as="points">
          <mxPoint x="7028" y="529" />
          <mxPoint x="6464" y="529" />
          <mxPoint x="6464" y="1087" />
          <mxPoint x="478" y="1087" />
        </Array>
      </mxGeometry>
    </mxCell>
    <mxCell id="edge2" edge="1" value="" parent="1" source="node22" target="node20" style="html=1;rounded=1;edgeStyle=orthogonalEdgeStyle;dashed=0;startArrow=none;endArrow=block;endSize=12;strokeColor=#000082;exitX=0.500;exitY=1.000;exitDx=0;exitDy=0;entryX=0.500;entryY=1.000;entryDx=0;entryDy=0;">
      <mxGeometry width="50" height="50" relative="1" as="geometry">
        <Array as="points">
          <mxPoint x="3658" y="1087" />
          <mxPoint x="478" y="1087" />
        </Array>
      </mxGeometry>
    </mxCell>
    <mxCell id="edge1" edge="1" value="" parent="1" source="node10" target="node20" style="html=1;rounded=1;edgeStyle=orthogonalEdgeStyle;dashed=0;startArrow=none;endArrow=block;endSize=12;strokeColor=#000082;exitX=0.500;exitY=1.000;exitDx=0;exitDy=0;entryX=0.500;entryY=1.000;entryDx=0;entryDy=0;">
      <mxGeometry width="50" height="50" relative="1" as="geometry">
        <Array as="points">
          <mxPoint x="7870" y="529" />
          <mxPoint x="6464" y="529" />
          <mxPoint x="6464" y="1087" />
          <mxPoint x="478" y="1087" />
        </Array>
      </mxGeometry>
    </mxCell>
    <mxCell id="edge6" edge="1" value="" parent="1" source="node25" target="node20" style="html=1;rounded=1;edgeStyle=orthogonalEdgeStyle;dashed=0;startArrow=none;endArrow=block;endSize=12;strokeColor=#000082;exitX=0.500;exitY=1.000;exitDx=0;exitDy=0;entryX=0.500;entryY=1.000;entryDx=0;entryDy=0;">
      <mxGeometry width="50" height="50" relative="1" as="geometry">
        <Array as="points">
          <mxPoint x="1122" y="1087" />
          <mxPoint x="478" y="1087" />
        </Array>
      </mxGeometry>
    </mxCell>
    <mxCell id="edge5" edge="1" value="" parent="1" source="node23" target="node20" style="html=1;rounded=1;edgeStyle=orthogonalEdgeStyle;dashed=0;startArrow=none;endArrow=block;endSize=12;strokeColor=#000082;exitX=0.500;exitY=1.000;exitDx=0;exitDy=0;entryX=0.500;entryY=1.000;entryDx=0;entryDy=0;">
      <mxGeometry width="50" height="50" relative="1" as="geometry">
        <Array as="points">
          <mxPoint x="2935" y="1087" />
          <mxPoint x="478" y="1087" />
        </Array>
      </mxGeometry>
    </mxCell>
  </root>
</mxGraphModel>